<svg xmlns="http://www.w3.org/2000/svg" viewBox="-50 -50 100 100" width="100" height="100"><path fill="#5b60d6" fill-rule="evenodd" d="M 37.19 -7.80 L 46.72 -5.16 L 46.72 5.16 L 37.19 7.80 L 36.11 11.84 L 43.04 18.89 L 37.88 27.82 L 28.31 25.35 L 25.35 28.31 L 27.82 37.88 L 18.89 43.04 L 11.84 36.11 L 7.80 37.19 L 5.16 46.72 L -5.16 46.72 L -7.80 37.19 L -11.84 36.11 L -18.89 43.04 L -27.82 37.88 L -25.35 28.31 L -28.31 25.35 L -37.88 27.82 L -43.04 18.89 L -36.11 11.84 L -37.19 7.80 L -46.72 5.16 L -46.72 -5.16 L -37.19 -7.80 L -36.11 -11.84 L -43.04 -18.89 L -37.88 -27.82 L -28.31 -25.35 L -25.35 -28.31 L -27.82 -37.88 L -18.89 -43.04 L -11.84 -36.11 L -7.80 -37.19 L -5.16 -46.72 L 5.16 -46.72 L 7.80 -37.19 L 11.84 -36.11 L 18.89 -43.04 L 27.82 -37.88 L 25.35 -28.31 L 28.31 -25.35 L 37.88 -27.82 L 43.04 -18.89 L 36.11 -11.84 Z M 13.00 0 A 13.00 13.00 0 1 0 -13.00 0 A 13.00 13.00 0 1 0 13.00 0 Z"/></svg>