<?xml version="1.0" encoding="utf-8"?>
<svg xmlns="http://www.w3.org/2000/svg" xmlns:xlink="http://www.w3.org/1999/xlink" xml:space="preserve" width="229.15137" height="294.5" viewBox="-19.08789 -125.14917 229.15137 294.5">
  <defs>
    <path id="a" d="m205.34863-40.52466-15.87891 4.53467c-.32129.0918-.65332.1582-.99512.19824l15.87793-4.53516c.34181-.03906.67481-.10595.9961-.19775z"/>
  </defs>
  <clipPath id="b">
    <use xlink:href="#a" overflow="visible"/>
  </clipPath>
  <g clip-path="url(#b)">
    <path fill="#484848" d="m205.34863-40.52466-15.87891 4.53467c-.32129.0918-.65332.1582-.99512.19824l15.87793-4.53516c.34181-.03906.67481-.10595.9961-.19775"/>
  </g>
  <path fill="#484848" d="m204.35254-40.3269-15.87793 4.53515-2.00293.22949 15.87793-4.53418z"/>
  <defs>
    <path id="c" d="m185.35059-35.33667 15.87891-4.53516c.36914-.10547.74414-.18164 1.12012-.22461l-15.87793 4.53418c-.37696.04395-.75099.11914-1.1211.22559z"/>
  </defs>
  <clipPath id="d">
    <use xlink:href="#c" overflow="visible"/>
  </clipPath>
  <g clip-path="url(#d)">
    <path fill="#484848" d="m202.34961-40.09644-15.87793 4.53418c-.37695.04395-.75098.11914-1.12109.22559l15.87891-4.53516c.36913-.10546.74413-.18164 1.12011-.22461"/>
  </g>
  <defs>
    <path id="e" d="M153.12305-108.4646c5.29297-1.51172 10.58594-3.02295 15.87891-4.53467-1.30078.37158-2.49316 1.16553-3.37109 2.3584l-15.87793 4.53467c.87792-1.19336 2.06933-1.98731 3.37011-2.3584z"/>
  </defs>
  <clipPath id="f">
    <use xlink:href="#e" overflow="visible"/>
  </clipPath>
  <g clip-path="url(#f)">
    <path fill="#484848" d="m165.63086-110.64087-15.87793 4.53467c.13281-.18066.27344-.35254.41992-.51465l15.87793-4.53467c-.14648.1626-.28613.33399-.41992.51465"/>
    <path fill="#494949" d="m166.05078-111.15552-15.87793 4.53467c.4082-.45166.86621-.83154 1.3584-1.13818l15.87891-4.53467c-.49317.30664-.95118.68652-1.35938 1.13818"/>
    <path fill="#4A4A4A" d="m167.41016-112.2937-15.87891 4.53467c.20215-.12549.40918-.23877.62109-.33936l15.87891-4.53467c-.21289.10108-.41992.21387-.62109.33936"/>
    <path fill="#4A4A4A" d="m168.03125-112.63306-15.87891 4.53467c.1709-.08105.34375-.1543.52051-.21924l15.87793-4.53467c-.17578.06543-.34961.13819-.51953.21924"/>
    <path fill="#4B4B4B" d="m168.55078-112.85229-15.87793 4.53467c.14844-.05469.29883-.104.4502-.14697l15.87891-4.53467c-.15235.04345-.30274.09228-.45118.14697"/>
  </g>
  <path fill="#494949" d="m164.10547-108.56616-15.87891 4.53467 1.52637-2.07471 15.87793-4.53467z"/>
  <defs>
    <path id="g" d="m159.45996-105.47144-15.87793 4.53467c1.85156-.52881 3.54785-1.60205 4.64453-3.09473l15.87891-4.53467c-1.09766 1.49268-2.79395 2.56593-4.64551 3.09473z"/>
  </defs>
  <clipPath id="h">
    <use xlink:href="#g" overflow="visible"/>
  </clipPath>
  <g clip-path="url(#h)">
    <path fill="#4B4B4B" d="m159.45996-105.47144-15.87793 4.53467c.23633-.06787.47168-.14453.70313-.22998l15.87793-4.53418c-.23145.08496-.46582.16211-.70313.22949"/>
    <path fill="#4A4A4A" d="m160.16309-105.70093-15.87793 4.53418c.27051-.1001.53711-.21191.79785-.33594l15.87793-4.53418c-.25977.12354-.52637.23536-.79785.33594m.79785-.33594-15.87793 4.53418c.31738-.15088.62598-.31885.92188-.50293l15.87793-4.53467c-.29591.18409-.60352.35206-.92188.50342"/>
    <path fill="#494949" d="m161.88281-106.54028-15.87793 4.53467c.61426-.38281 1.17578-.83594 1.66113-1.35254l15.87891-4.53467c-.48535.5166-1.04785.96972-1.66211 1.35254"/>
    <path fill="#484848" d="m163.54492-107.89282-15.87891 4.53467c.20117-.21387.38867-.43848.56055-.67334l15.87891-4.53467c-.17285.23486-.36035.45947-.56055.67334"/>
  </g>
  <defs>
    <path id="i" d="m187.51465 10.69556-15.87891 4.53418c-.33203.09473-.6709.16211-1.01465.20215-1.68555.19336-3.45996-.28516-4.91992-1.48438l15.87793-4.53418c1.45996 1.19824 3.23535 1.67773 4.9209 1.4834.34277-.03906.68262-.10645 1.01465-.20117z"/>
  </defs>
  <clipPath id="j">
    <use xlink:href="#i" overflow="visible"/>
  </clipPath>
  <g clip-path="url(#j)">
    <path fill="#484848" d="m187.51465 10.69556-15.87891 4.53418c-.33203.09473-.6709.16211-1.01465.20215-1.68555.19336-3.45996-.28516-4.91992-1.48438l15.87793-4.53418c1.45996 1.19824 3.23535 1.67773 4.9209 1.4834.34277-.03906.68262-.10645 1.01465-.20117"/>
  </g>
  <path fill="#4A4A4A" d="m181.5791 9.41333-15.87793 4.53418-1.37695-1.13477 15.87793-4.53515z"/>
  <defs>
    <path id="k" d="M156.03906 11.22192c5.29297-1.51172 10.58496-3.02344 15.87793-4.53516.46973-.13379.95508-.22852 1.44824-.28613 2.40625-.27637 4.99902.36426 6.83691 1.87695l-15.87793 4.53516c-1.83789-1.51367-4.43164-2.15332-6.83789-1.87695-.49316.05664-.97851.15137-1.44726.28613z"/>
  </defs>
  <clipPath id="l">
    <use xlink:href="#k" overflow="visible"/>
  </clipPath>
  <g clip-path="url(#l)">
    <path fill="#484848" d="m180.20215 8.27759-15.87793 4.53516c-1.83789-1.51367-4.43164-2.15332-6.83789-1.87695-.49316.05664-.97852.15137-1.44727.28613l15.87793-4.53516c.46973-.13379.95508-.22852 1.44824-.28613 2.40625-.27637 4.99903.36425 6.83692 1.87695"/>
  </g>
  <defs>
    <path id="m" d="M146.86914-5.52612 130.99023-.99194c18.375-5.24707 30.47754-24.03516 27.73145-44.7041-3.03613-22.854-23.0752-39.35693-44.75391-36.86426-2.07324.23828-4.08691.64209-6.03027 1.19678l15.87891-4.53467c1.94336-.55469 3.95605-.95801 6.0293-1.19678 21.67871-2.49268 41.71875 14.01025 44.75488 36.86426 2.74511 20.66943-9.35645 39.45654-27.73145 44.70459z"/>
  </defs>
  <clipPath id="n">
    <use xlink:href="#m" overflow="visible"/>
  </clipPath>
  <g clip-path="url(#n)">
    <path fill="#4B4B4B" d="M146.86914-5.52612 130.99023-.99194c.90723-.25879 1.79883-.55078 2.67383-.87402l15.87891-4.53516c-.875.32422-1.76758.61621-2.67383.875"/>
    <path fill="#4A4A4A" d="m149.54297-6.40112-15.87891 4.53516c1.0498-.3877 2.0752-.82129 3.07617-1.29785L152.61816-7.698c-1 .47656-2.02636.90918-3.07519 1.29688m3.07519-1.29688-15.87793 4.53418c1.29883-.61816 2.55664-1.30859 3.7666-2.06738l15.87891-4.53418c-1.21094.75781-2.46777 1.44922-3.76758 2.06738"/>
    <path fill="#494949" d="m156.38574-9.76538-15.8789 4.53418c2.87207-1.79883 5.4834-3.97559 7.78125-6.45996l15.87793-4.53418c-2.29786 2.48437-4.90821 4.66113-7.78028 6.45996"/>
    <path fill="#484848" d="m164.16602-16.22534-15.87793 4.53418c1.31641-1.42383 2.53125-2.94922 3.63281-4.5625l15.87793-4.53418c-1.10156 1.6123-2.31543 3.13769-3.63281 4.5625"/>
    <path fill="#494949" d="m167.79883-20.78784-15.87793 4.53418c5.5625-8.14648 8.25-18.53223 6.80078-29.44238-1.4873-11.19775-7.05664-20.87061-14.90137-27.53174l15.87891-4.53467c7.84375 6.66113 13.41406 16.33398 14.90137 27.53174 1.44921 10.90967-1.23829 21.29541-6.80176 29.44287"/>
    <path fill="#484848" d="m159.69922-77.76245-15.87891 4.53467c-8.16504-6.93359-18.7959-10.604-29.85254-9.33252-2.07324.23828-4.08691.64209-6.03027 1.19678l15.87891-4.53467c1.94336-.55469 3.95605-.95801 6.0293-1.19678 11.05663-1.27149 21.68749 2.39893 29.85351 9.33252"/>
  </g>
  <defs>
    <path id="o" d="m101.32422-118.91772 15.87793-4.53418c-3.07324.87744-5.1123 4.03809-4.6543 7.48926l-15.87793 4.53467c-.45898-3.45118 1.58106-6.61182 4.6543-7.48975z"/>
  </defs>
  <clipPath id="p">
    <use xlink:href="#o" overflow="visible"/>
  </clipPath>
  <g clip-path="url(#p)">
    <path fill="#494949" d="m112.54785-115.96265-15.87793 4.53467c-.24219-1.81982.21094-3.55908 1.14355-4.92529l15.87793-4.53467c-.93163 1.36621-1.38476 3.10547-1.14355 4.92529"/>
    <path fill="#484848" d="m113.69141-120.88794-15.87793 4.53467c.18457-.271.38867-.52734.61035-.7666l15.87793-4.53418c-.22071.23926-.42481.49511-.61035.76611"/>
    <path fill="#494949" d="m114.30176-121.65405-15.87793 4.53418c.38672-.41943.82715-.78662 1.31152-1.08984l15.87793-4.53418c-.4834.30273-.92383.66992-1.31152 1.08984"/>
    <path fill="#4A4A4A" d="m115.61328-122.7439-15.87793 4.53418c.20215-.12646.41309-.24219.62988-.3457l15.87891-4.53418c-.21777.10303-.42773.21875-.63086.3457m.63086-.3457-15.87891 4.53418c.16699-.0791.33789-.15137.51367-.21631l15.87793-4.53467c-.1748.06494-.34667.13721-.51269.2168"/>
    <path fill="#4B4B4B" d="m116.75684-123.3064-15.87793 4.53467c.14551-.0542.29395-.10254.44531-.146l15.87793-4.53418c-.15137.04297-.29981.0918-.44531.14551"/>
  </g>
  <path fill="#4C4C4C" d="m112.9082-113.25415-15.8789 4.53467-.35938-2.7085 15.87793-4.53467z"/>
  <defs>
    <path id="q" d="m152.65527 31.11938-15.87793 4.53418c-.32129.0918-.6543.1582-.99609.19824l15.87891-4.53516c.34179-.03905.67382-.10546.99511-.19726z"/>
  </defs>
  <clipPath id="r">
    <use xlink:href="#q" overflow="visible"/>
  </clipPath>
  <g clip-path="url(#r)">
    <path fill="#484848" d="m152.65527 31.11938-15.87793 4.53418c-.32129.0918-.6543.1582-.99609.19824l15.87891-4.53516c.34179-.03905.67382-.10546.99511-.19726"/>
  </g>
  <defs>
    <path id="s" d="M107.83496-103.51538 91.95605-98.9812c3.2959-1.5459 5.58008-5.9248 5.07324-9.73828l15.87891-4.53467c.50586 3.81396-1.77734 8.19238-5.07324 9.73877z"/>
  </defs>
  <clipPath id="t">
    <use xlink:href="#s" overflow="visible"/>
  </clipPath>
  <g clip-path="url(#t)">
    <path fill="#4A4A4A" d="M107.83496-103.51538 91.95605-98.9812c.01074-.00488.02246-.00977.03223-.01514l15.87891-4.53467c-.01074.00538-.02149.01026-.03223.01563"/>
    <path fill="#4A4A4A" d="m107.86719-103.53101-15.87891 4.53467c.24316-.11523.48047-.24609.71094-.39063l15.87891-4.53467c-.23145.14454-.46875.2754-.71094.39063"/>
    <path fill="#494949" d="m108.57813-103.92163-15.87891 4.53467c.63281-.39697 1.21777-.89844 1.74219-1.47705l15.87793-4.53467c-.52442.57861-1.10938 1.08056-1.74121 1.47705"/>
    <path fill="#484848" d="m110.31934-105.39868-15.87793 4.53467c.29883-.33008.57715-.68555.83398-1.06055l15.87793-4.53418c-.25586.375-.53516.72998-.83398 1.06006"/>
    <path fill="#494949" d="m111.15332-106.45874-15.87793 4.53418c1.34375-1.96924 2.06055-4.48535 1.75391-6.79492l15.87891-4.53467c.30663 2.30957-.41016 4.82568-1.75489 6.79541"/>
  </g>
  <path fill="#484848" d="m151.66016 31.31665-15.87891 4.53516-12.67773 1.45703 15.8789-4.53418zm-50.64844-130.8999-15.87793 4.53467 6.82226-3.93262 15.87891-4.53418z"/>
  <defs>
    <path id="u" d="m98.66309-98.46948-15.87793 4.53467c.85156-.24316 1.65039-.61377 2.34863-1.11377l15.87793-4.53467c-.69727.5-1.49609.8706-2.34863 1.11377z"/>
  </defs>
  <clipPath id="v">
    <use xlink:href="#u" overflow="visible"/>
  </clipPath>
  <g clip-path="url(#v)">
    <path fill="#4B4B4B" d="m98.66309-98.46948-15.87793 4.53467c.20313-.05811.40332-.12354.59961-.1958l15.87891-4.53467c-.19727.07275-.39649.13818-.60059.1958"/>
    <path fill="#4A4A4A" d="m99.26367-98.66528-15.87891 4.53467c.22266-.08203.43945-.17334.65039-.27344l15.87891-4.53467c-.21093.1001-.42871.19141-.65039.27344m.65039-.27344-15.87891 4.53467c.25098-.11914.49316-.25098.72656-.396l15.87891-4.53467c-.23437.14502-.47656.27686-.72656.396"/>
    <path fill="#494949" d="m100.64063-99.33472-15.87891 4.53467c.12695-.0791.25098-.16162.37207-.24854l15.87793-4.53467c-.12109.08692-.24512.16944-.37109.24854"/>
  </g>
  <path fill="#4C4C4C" d="m131.48633 26.59888-15.87891 4.53418-.22949-1.72852 15.87793-4.53418z"/>
  <defs>
    <path id="w" d="m138.98242 32.77466-15.87891 4.53418c-3.61719.41602-6.98926-2.3623-7.49609-6.17578l15.87891-4.53418c.50586 3.8125 3.8789 6.59179 7.49609 6.17578z"/>
  </defs>
  <clipPath id="x">
    <use xlink:href="#w" overflow="visible"/>
  </clipPath>
  <g clip-path="url(#x)">
    <path fill="#484848" d="m138.98242 32.77466-15.87891 4.53418c-1.84473.21289-3.625-.40625-4.99512-1.56934l15.87793-4.53516c1.37013 1.16407 3.15138 1.78223 4.9961 1.57032"/>
    <path fill="#494949" d="M133.98633 31.20435 118.1084 35.7395c-1.31641-1.11719-2.25293-2.73828-2.50098-4.60645l15.87891-4.53418c.24805 1.86817 1.18359 3.48829 2.5 4.60548"/>
  </g>
  <defs>
    <path id="y" d="m131.25586 24.87036-15.87793 4.53418c-.50488-3.80469-3.86816-7.54297-7.46191-8.30566l15.87891-4.53516c3.59374.7627 6.95605 4.50195 7.46093 8.30664z"/>
  </defs>
  <clipPath id="z">
    <use xlink:href="#y" overflow="visible"/>
  </clipPath>
  <g clip-path="url(#z)">
    <path fill="#494949" d="m131.25586 24.87036-15.87793 4.53418c-.31543-2.37402-1.74316-4.72266-3.64551-6.33789l15.87891-4.53516c1.90234 1.61622 3.33008 3.96485 3.64453 6.33887"/>
    <path fill="#484848" d="m127.61133 18.53149-15.87891 4.53516c-1.14648-.97363-2.46484-1.68164-3.81641-1.96777l15.87891-4.53516c1.35156.28711 2.66992.99414 3.81641 1.96777"/>
  </g>
  <path fill="#484848" d="m123.79492 16.56372-15.8789 4.53516-8.29688-2.52051 15.87793-4.53418z"/>
  <defs>
    <path id="A" d="M66.46875-98.50073c5.29297-1.51172 10.58496-3.02295 15.87793-4.53467-1.2998.37158-2.49219 1.16553-3.36914 2.3584l-15.87891 4.53467c.87793-1.19336 2.06934-1.98731 3.37012-2.3584z"/>
  </defs>
  <clipPath id="B">
    <use xlink:href="#A" overflow="visible"/>
  </clipPath>
  <g clip-path="url(#B)">
    <path fill="#484848" d="m78.97754-100.677-15.87891 4.53467c.13281-.18066.27246-.35205.41992-.51465l15.87793-4.53467c-.14648.1626-.28613.33398-.41894.51465"/>
    <path fill="#494949" d="m79.39648-101.19165-15.87793 4.53467c.40723-.45166.86621-.83154 1.3584-1.13867l15.87891-4.53418c-.49316.30664-.95117.68652-1.35938 1.13818"/>
    <path fill="#4A4A4A" d="m80.75586-102.32983-15.87891 4.53418c.20117-.125.40918-.23828.62109-.33887l15.87891-4.53467c-.21289.10059-.41992.21387-.62109.33936"/>
    <path fill="#4A4A4A" d="m81.37695-102.66919-15.87891 4.53467c.16992-.08105.34375-.1543.51953-.21924l15.87891-4.53467c-.17578.06543-.3496.13819-.51953.21924"/>
    <path fill="#4B4B4B" d="m81.89648-102.88843-15.87891 4.53467c.14844-.05469.29883-.104.45117-.14697l15.87793-4.53467c-.15136.04346-.30175.09228-.45019.14697"/>
  </g>
  <defs>
    <path id="C" d="m93.97852 18.36841 15.87891-4.53516c.50586-.14453 1.02344-.24805 1.54492-.30762 1.4043-.16113 2.83008-.00586 4.09473.51855l-15.87793 4.53418c-1.26563-.52441-2.69043-.67969-4.0957-.51758-.5215.05958-1.03907.1631-1.54493.30763z"/>
  </defs>
  <clipPath id="D">
    <use xlink:href="#C" overflow="visible"/>
  </clipPath>
  <g clip-path="url(#D)">
    <path fill="#484848" d="m115.49707 14.04419-15.87793 4.53418c-1.26563-.52441-2.69043-.67969-4.0957-.51758-.52148.05957-1.03906.16309-1.54492.30762l15.87891-4.53516c.50586-.14453 1.02344-.24805 1.54492-.30762 1.40429-.16113 2.83007-.00585 4.09472.51856"/>
  </g>
  <path fill="#494949" d="m71.26465-90.20093-15.87891 4.53418 7.71289-10.47558 15.87891-4.53467z"/>
  <defs>
    <path id="E" d="M77.50195-67.98657 61.62402-63.4519c1.25098-3.56299-.1084-8.43652-3.01855-10.83398l15.87891-4.53467c2.91015 2.39745 4.26953 7.27099 3.01757 10.83398z"/>
  </defs>
  <clipPath id="F">
    <use xlink:href="#E" overflow="visible"/>
  </clipPath>
  <g clip-path="url(#F)">
    <path fill="#494949" d="M77.50195-67.98657 61.62402-63.4519c1.23926-3.52734-.08105-8.33936-2.93164-10.76123l15.87793-4.53467c2.85059 2.42187 4.1709 7.23388 2.93164 10.76123"/>
    <path fill="#484848" d="m74.57031-78.7478-15.87793 4.53467c-.02832-.02441-.05762-.04883-.08691-.07275l15.87891-4.53467c.02929.02392.05761.04833.08593.07275"/>
  </g>
  <path fill="#4A4A4A" d="m74.48438-78.82056-15.87891 4.53467-1.91797-1.57959 15.87891-4.53467z"/>
  <defs>
    <path id="G" d="M72.56641-80.40015 56.6875-75.86548c-2.90918-2.39746-3.49512-6.80762-1.30176-9.80127l15.87891-4.53418c-2.19434 2.99317-1.6084 7.40332 1.30176 9.80078z"/>
  </defs>
  <clipPath id="H">
    <use xlink:href="#G" overflow="visible"/>
  </clipPath>
  <g clip-path="url(#H)">
    <path fill="#484848" d="M72.56641-80.40015 56.6875-75.86548c-.02637-.02197-.05273-.04443-.08008-.06689l15.87891-4.53467c.02637.02246.05273.04492.08008.06689"/>
    <path fill="#494949" d="m72.48633-80.46704-15.87891 4.53467c-2.78125-2.36328-3.37109-6.59229-1.35059-9.55176l15.87793-4.53467c-2.01953 2.95947-1.43066 7.18897 1.35157 9.55176"/>
    <path fill="#484848" d="m71.13477-90.0188-15.87793 4.53467c.04199-.06152.08496-.12207.12891-.18262l15.87891-4.53418c-.04396.06006-.08693.1211-.12989.18213"/>
  </g>
  <path fill="#4B4B4B" d="m75.44336-59.84351-15.87891 4.53467 2.05957-8.14306 15.87793-4.53467z"/>
  <defs>
    <path id="I" d="m100.85449 20.65942-15.87891 4.53516c-.33301.09473-.67285.16211-1.01563.20117-1.68457.19434-3.45801-.28516-4.91309-1.48438l15.87891-4.53418c1.45508 1.19922 3.22852 1.67773 4.91211 1.48438.34376-.03906.6836-.10644 1.01661-.20215z"/>
  </defs>
  <clipPath id="J">
    <use xlink:href="#I" overflow="visible"/>
  </clipPath>
  <g clip-path="url(#J)">
    <path fill="#484848" d="m100.85449 20.65942-15.87891 4.53516c-.33301.09473-.67285.16211-1.01563.20117-1.68457.19434-3.45801-.28516-4.91309-1.48438l15.87891-4.53418c1.45508 1.19922 3.22852 1.67773 4.91211 1.48438.34376-.03906.6836-.10644 1.01661-.20215"/>
  </g>
  <path fill="#4B4B4B" d="M84.68164-11.61304 68.80273-7.07886l-4.16992-7.75195 15.87891-4.53418z"/>
  <defs>
    <path id="K" d="m84.52734-.37769-15.8789 4.53418c2.20313-2.98535 2.26953-8.04102.1543-11.23535l15.87891-4.53418c2.11523 3.19434 2.04882 8.25-.15431 11.23535z"/>
  </defs>
  <clipPath id="L">
    <use xlink:href="#K" overflow="visible"/>
  </clipPath>
  <g clip-path="url(#L)">
    <path fill="#484848" d="m84.52734-.37769-15.8789 4.53418c.05273-.07129.10352-.14355.15332-.2168L84.67969-.59449c-.04883.07325-.10059.14552-.15235.2168"/>
    <path fill="#494949" d="M84.67969-.59448 68.80176 3.9397c2.05176-3.00781 2.06543-7.90039.00098-11.01855l15.87891-4.53418c2.06444 3.11816 2.05077 8.01074-.00196 11.01855"/>
  </g>
  <defs>
    <path id="M" d="m68.84766-52.48804-15.87891 4.53467c3.18457-.90918 6.0293-3.99512 6.5957-7.35547l15.87891-4.53467c-.56738 3.36036-3.41211 6.44629-6.5957 7.35547z"/>
  </defs>
  <clipPath id="N">
    <use xlink:href="#M" overflow="visible"/>
  </clipPath>
  <g clip-path="url(#N)">
    <path fill="#4B4B4B" d="m68.84766-52.48804-15.87891 4.53467c.18945-.05371.37695-.11523.5625-.18408l15.87891-4.53467c-.18653.06885-.37403.13037-.5625.18408"/>
    <path fill="#4A4A4A" d="m69.41016-52.67212-15.87891 4.53467c.2334-.08643.46484-.18457.69238-.29297l15.87793-4.53467c-.22656.10889-.45898.20655-.6914.29297"/>
    <path fill="#4A4A4A" d="m70.10156-52.96509-15.87793 4.53467c.30566-.14551.60645-.31104.89844-.49316L71-53.45825c-.29102.18213-.5918.34766-.89746.49316"/>
    <path fill="#494949" d="m71-53.45825-15.87793 4.53467c.88379-.55176 1.69434-1.26221 2.37891-2.07861l15.87793-4.53467c-.6836.8164-1.49512 1.52685-2.37891 2.07861"/>
    <path fill="#484848" d="M73.37891-55.53687 57.50098-51.0022c.21582-.25732.41895-.5249.6084-.80127l15.87793-4.53467c-.18848.27637-.39161.54444-.6084.80127"/>
    <path fill="#494949" d="m73.9873-56.33813-15.87793 4.53467c.72852-1.06836 1.24609-2.26807 1.45508-3.50537l15.87891-4.53467c-.20898 1.2373-.72656 2.43749-1.45606 3.50537"/>
  </g>
  <path fill="#494949" d="M83.40039 1.15356 67.52148 5.68774l1.12696-1.53125 15.8789-4.53418z"/>
  <path fill="#4A4A4A" d="m94.92578 19.3772-15.8789 4.53418-10.22266-8.42188 15.87793-4.53515z"/>
  <defs>
    <path id="O" d="M84.70215 10.95435 68.82422 15.4895c-2.91016-2.39746-3.49609-6.80762-1.30273-9.80176L83.4004 1.15356c-2.19337 2.99317-1.60743 7.4043 1.30175 9.80079z"/>
  </defs>
  <clipPath id="P">
    <use xlink:href="#O" overflow="visible"/>
  </clipPath>
  <g clip-path="url(#P)">
    <path fill="#484848" d="M84.70215 10.95435 68.82422 15.4895c-.02734-.02246-.05469-.04492-.08105-.06738l15.87793-4.53516c.02734.02344.0537.0459.08105.06739"/>
    <path fill="#494949" d="m84.62109 10.88696-15.87793 4.53516c-2.78223-2.3623-3.37109-6.59277-1.35059-9.55176L83.27148 1.3352c-2.02148 2.95997-1.43164 7.18946 1.34961 9.55176"/>
    <path fill="#484848" d="m83.27148 1.33521-15.8789 4.53515c.04199-.06152.08496-.12207.12891-.18262L83.4004 1.15356c-.04493.05957-.0879.1211-.12892.18165"/>
  </g>
  <defs>
    <path id="Q" d="m80.51172-19.36499-15.87891 4.53418c-1.54883-3.52246-5.78125-6.05664-9.39063-5.6416l15.87891-4.53516c3.60938-.41504 7.8418 2.12012 9.39063 5.64258z"/>
  </defs>
  <clipPath id="R">
    <use xlink:href="#Q" overflow="visible"/>
  </clipPath>
  <g clip-path="url(#R)">
    <path fill="#494949" d="m80.51172-19.36499-15.87891 4.53418c-.54883-1.24707-1.43359-2.37109-2.50781-3.2832l15.87793-4.53516c1.0752.91309 1.95996 2.03613 2.50879 3.28418"/>
    <path fill="#484848" d="M78.00293-22.64917 62.125-18.11401c-1.96094-1.66406-4.55176-2.62695-6.88281-2.3584l15.87891-4.53516c2.33105-.26758 4.92187.69434 6.88183 2.3584"/>
  </g>
  <path fill="#484848" d="m71.12109-25.00757-15.8789 4.53516-1.99414.22949 15.8789-4.53516z"/>
  <radialGradient id="S" cx="134.92773" cy="-46.16675" r="77.08308" gradientUnits="userSpaceOnUse">
    <stop offset=".07143" stop-color="#939393"/>
    <stop offset=".19231" stop-color="#fff"/>
    <stop offset=".5" stop-color="#939393"/>
    <stop offset=".5989" stop-color="#bbb"/>
    <stop offset=".74725" stop-color="#b7b7b7"/>
    <stop offset=".80337" stop-color="#d6d6d6"/>
    <stop offset="1" stop-color="#939598"/>
  </radialGradient>
  <path fill="url(#S)" d="M200.73535-67.55591c3.6084-.41455 6.98145 2.36328 7.48828 6.17676l1.77539 13.36523c.50684 3.81299-2.03809 7.27197-5.64648 7.68701l-2.00293.23047c-3.6084.41504-7.0498 3.83203-7.63184 7.59961l-2.01563 8.46289c-1.21484 3.57715.17188 8.46582 3.09082 10.8623l1.49316 1.22949c2.91113 2.40723 3.49707 6.81738 1.30176 9.80176l-7.71094 10.48438c-1.09766 1.49316-2.69238 2.35938-4.37695 2.55273-1.68555.19434-3.46094-.28516-4.9209-1.4834l-1.37695-1.13574c-1.83789-1.5127-4.43066-2.15332-6.83691-1.87695-1.40527.16211-2.74707.63574-3.83691 1.43066l-7.37988 4.32227c-3.29492 1.55469-5.57715 5.94336-5.07227 9.74707l.22949 1.72949c.50684 3.8125-2.03711 7.27148-5.64551 7.68652l-12.67773 1.45801c-3.61719.41602-6.99023-2.36328-7.49609-6.17578l-.23047-1.72852c-.50488-3.80469-3.86719-7.54395-7.46094-8.30664l-8.29785-2.51953c-1.26465-.52441-2.69043-.67969-4.09473-.51855-2.40723.27734-4.75586 1.48535-6.14063 3.36914l-1.03906 1.41309c-1.10254 1.49316-2.69922 2.36035-4.38477 2.55371-1.68359.19336-3.45703-.28516-4.91211-1.48438l-10.22363-8.42285c-2.90918-2.39648-3.49512-6.80762-1.30176-9.80078l1.12695-1.53125c2.20313-2.98535 2.26953-8.04102.1543-11.23535l-4.16992-7.75195c-1.54883-3.52246-5.78125-6.05762-9.39063-5.64258l-1.99414.22949c-3.61719.41602-6.99023-2.36328-7.49609-6.17578l-1.77539-13.36523c-.50781-3.81348 2.03711-7.27197 5.6543-7.68799l2.20508-.25342c3.61719-.41602 7.09473-3.82813 7.72852-7.58301l2.05859-8.14307c1.25195-3.56299-.10742-8.43652-3.01758-10.83398l-1.91797-1.57959c-2.91016-2.39746-3.49609-6.80762-1.30176-9.80078l7.71289-10.47607c1.10059-1.49756 2.69727-2.36621 4.38184-2.56006 1.68555-.19336 3.45898.2876 4.91406 1.49121l2.03223 1.66553c1.85059 1.53027 4.47168 2.17773 6.90137 1.89844 1.3916-.15967 2.7207-.62451 3.80469-1.40137l6.82324-3.93213c3.2959-1.54639 5.5791-5.9248 5.07324-9.73877l-.36035-2.7085c-.50684-3.81348 2.03711-7.27197 5.6543-7.68799l12.67773-1.45752c3.6084-.41504 6.98145 2.36328 7.4873 6.17676l.36035 2.7085c.50684 3.81348 3.86816 7.54346 7.46875 8.29639l7.65527 2.26758c1.25195.5083 2.66016.6582 4.05078.49805 2.42871-.2793 4.80371-1.50146 6.20313-3.40527l1.52539-2.07471c1.10254-1.49756 2.69824-2.36621 4.38379-2.56006 1.68457-.19336 3.45801.2876 4.91406 1.49121l10.22168 8.41357c2.91113 2.40625 3.49707 6.81641 1.30176 9.80127l-1.44629 1.96631c-2.19531 2.98389-2.23828 8.01904-.0918 11.19141l4.12793 7.43164c1.59668 3.49805 5.8623 6.02002 9.47949 5.604l2.21388-.2544zM140.84082-4.32983c21.67871-2.49219 36.7959-23.0459 33.75977-45.90088-3.03613-22.854-23.07617-39.35693-44.75488-36.86426-21.67773 2.49268-36.78809 23.03711-33.75195 45.89111 3.03515 22.85449 23.06835 39.36719 44.74706 36.87403"/>
  <defs>
    <path id="T" d="m48.63086-47.27368 15.87891-4.53467c-3.07324.87744-5.11328 4.03809-4.6543 7.48926l-15.87891 4.53467c-.45898-3.45118 1.58106-6.61182 4.6543-7.48926z"/>
  </defs>
  <clipPath id="U">
    <use xlink:href="#T" overflow="visible"/>
  </clipPath>
  <g clip-path="url(#U)">
    <path fill="#494949" d="m59.85547-44.31909-15.87891 4.53467c-.24219-1.81982.21094-3.55908 1.14453-4.92529l15.87793-4.53467c-.93261 1.36621-1.38574 3.10546-1.14355 4.92529"/>
    <path fill="#484848" d="m60.99902-49.24438-15.87793 4.53467c.18457-.271.38867-.52686.60938-.76611l15.87891-4.53467c-.22168.23925-.42579.49511-.61036.76611"/>
    <path fill="#494949" d="m61.60938-50.0105-15.87891 4.53467c.38672-.41943.82813-.78711 1.31152-1.08984l15.87793-4.53467c-.4834.30273-.92383.67041-1.31054 1.08984"/>
    <path fill="#4A4A4A" d="m62.91992-51.10034-15.87793 4.53467c.20215-.12695.41309-.24268.62988-.3457l15.87891-4.53467c-.21777.10351-.42773.21875-.63086.3457"/>
    <path fill="#4A4A4A" d="m63.55078-51.44604-15.87891 4.53467c.16699-.07959.33789-.15186.51367-.2168l15.87891-4.53467c-.17578.06494-.34668.13721-.51367.2168"/>
    <path fill="#4B4B4B" d="m64.06445-51.66284-15.87891 4.53467c.14551-.05371.29492-.10254.44531-.14551l15.87891-4.53467c-.15136.04297-.2998.0918-.44531.14551"/>
  </g>
  <path fill="#4C4C4C" d="M61.63086-30.95386 45.75195-26.4187l-1.77539-13.36572 15.87891-4.53467z"/>
  <defs>
    <path id="V" d="m69.12695-24.77808-15.87891 4.53516c-3.61719.41504-6.99023-2.36328-7.49609-6.17578l15.87891-4.53516c.50586 3.8125 3.87891 6.5918 7.49609 6.17578z"/>
  </defs>
  <clipPath id="W">
    <use xlink:href="#V" overflow="visible"/>
  </clipPath>
  <g clip-path="url(#W)">
    <path fill="#484848" d="m69.12695-24.77808-15.87891 4.53516c-1.84473.21191-3.62598-.40723-4.99609-1.57031l15.87891-4.53418c1.36914 1.16308 3.15039 1.78125 4.99609 1.56933"/>
    <path fill="#494949" d="m64.13086-26.34741-15.87891 4.53418c-1.31543-1.11719-2.25195-2.7373-2.5-4.60547l15.87891-4.53516c.24805 1.86817 1.18359 3.48828 2.5 4.60645"/>
  </g>
  <defs>
    <path id="X" d="M142.34863 91.47583c-5.29297 1.51172-10.58594 3.02246-15.87891 4.53418-.32129.0918-.65332.15918-.99512.19824l15.87793-4.53516c.34181-.03906.67481-.10546.9961-.19726z"/>
  </defs>
  <clipPath id="Y">
    <use xlink:href="#X" overflow="visible"/>
  </clipPath>
  <g clip-path="url(#Y)">
    <path fill="#484848" d="m142.34863 91.47583-15.87891 4.53418c-.32129.0918-.65332.15918-.99512.19824l15.87793-4.53516c.34181-.03906.67481-.10546.9961-.19726"/>
  </g>
  <path fill="#484848" d="m141.35254 91.6731-15.87793 4.53515-2.00293.23047 15.87793-4.53516z"/>
  <defs>
    <path id="Z" d="m122.35059 96.66333 15.87891-4.53516c.36914-.10547.74414-.18164 1.12012-.22461l-15.87793 4.53516c-.37696.04297-.75099.11914-1.1211.22461z"/>
  </defs>
  <clipPath id="aa">
    <use xlink:href="#Z" overflow="visible"/>
  </clipPath>
  <g clip-path="url(#aa)">
    <path fill="#484848" d="m139.34961 91.90356-15.87793 4.53516c-.37695.04297-.75098.11914-1.12109.22461l15.87891-4.53516c.36913-.10546.74413-.18164 1.12011-.22461"/>
  </g>
  <defs>
    <path id="ab" d="M90.12305 23.5354c.23828-.06787.55566-.15869.79395-.22656 5.02832-1.43604 10.05566-2.87207 15.08496-4.30811-1.30078.37158-2.49316 1.16553-3.37109 2.35889L86.75293 25.8938c.87793-1.19287 2.06934-1.98682 3.37012-2.3584z"/>
  </defs>
  <clipPath id="ac">
    <use xlink:href="#ab" overflow="visible"/>
  </clipPath>
  <g clip-path="url(#ac)">
    <path fill="#484848" d="M102.63086 21.35962 86.75293 25.8938c.13281-.18066.27344-.35205.41992-.51465l15.87793-4.53418c-.14648.16211-.28613.33399-.41992.51465"/>
    <path fill="#494949" d="m103.05078 20.84497-15.87793 4.53418c.40723-.45117.86621-.83105 1.3584-1.13818l15.87891-4.53467c-.49317.30713-.95118.68701-1.35938 1.13867"/>
    <path fill="#4A4A4A" d="m104.41016 19.7063-15.87891 4.53467c.20215-.125.40918-.23828.62109-.33936l15.87891-4.53418c-.21289.10059-.41992.21387-.62109.33887"/>
    <path fill="#4A4A4A" d="m105.03125 19.36743-15.87891 4.53418c.1709-.08105.34375-.15381.52051-.21875l15.87793-4.53467c-.17578.06494-.34961.13819-.51953.21924"/>
    <path fill="#4B4B4B" d="m105.55078 19.14819-15.87793 4.53467c.14844-.05469.29883-.104.4502-.14746l15.87891-4.53467c-.15235.04346-.30274.09278-.45118.14746"/>
  </g>
  <path fill="#494949" d="m101.10547 23.43433-15.87891 4.53466 1.52637-2.07519 15.87793-4.53418z"/>
  <defs>
    <path id="ad" d="m96.45996 26.52905-15.87793 4.53467c1.85156-.52881 3.54785-1.60254 4.64453-3.09473l15.87891-4.53467c-1.09766 1.49219-2.79395 2.56592-4.64551 3.09473z"/>
  </defs>
  <clipPath id="ae">
    <use xlink:href="#ad" overflow="visible"/>
  </clipPath>
  <g clip-path="url(#ae)">
    <path fill="#4B4B4B" d="m96.45996 26.52905-15.87793 4.53467c.23633-.06787.47168-.14453.70313-.22998l15.87793-4.53467c-.23145.08545-.46582.16211-.70313.22998"/>
    <path fill="#4A4A4A" d="m97.16309 26.29907-15.87793 4.53467c.27051-.1001.53711-.2124.79785-.33594l15.87793-4.53467c-.25977.12354-.52637.23584-.79785.33594"/>
    <path fill="#4A4A4A" d="M97.96094 25.96313 82.08301 30.4978c.31738-.15088.62598-.31885.92188-.50342l15.87793-4.53467c-.29591.18458-.6045.35255-.92188.50342"/>
    <path fill="#494949" d="m98.88281 25.45972-15.87793 4.53467c.61426-.38281 1.17578-.83594 1.66113-1.35254l15.87891-4.53467c-.48535.51709-1.04785.97021-1.66211 1.35254"/>
    <path fill="#484848" d="m100.54492 24.10718-15.87891 4.53467c.2002-.21387.3877-.43799.56055-.67285l15.87891-4.53467c-.17285.23486-.36035.45947-.56055.67285"/>
  </g>
  <defs>
    <path id="af" d="M124.51465 142.69556c-5.29297 1.51074-10.58594 3.02344-15.87891 4.53418-.33203.0957-.6709.16211-1.01465.20215-1.68555.19336-3.45996-.28516-4.91992-1.4834l15.87793-4.53516c1.45996 1.19824 3.23535 1.67773 4.9209 1.4834.34277-.03906.68262-.10645 1.01465-.20117z"/>
  </defs>
  <clipPath id="ag">
    <use xlink:href="#af" overflow="visible"/>
  </clipPath>
  <g clip-path="url(#ag)">
    <path fill="#484848" d="m124.51465 142.69556-15.87891 4.53418c-.33203.0957-.6709.16211-1.01465.20215-1.68555.19336-3.45996-.28516-4.91992-1.4834l15.87793-4.53516c1.45996 1.19824 3.23535 1.67773 4.9209 1.4834.34277-.03906.68262-.10645 1.01465-.20117"/>
  </g>
  <path fill="#4A4A4A" d="m118.5791 141.41333-15.87793 4.53516-1.37695-1.13575 15.87793-4.53418z"/>
  <defs>
    <path id="ah" d="M93.03906 143.22192c5.29297-1.51172 10.58496-3.02344 15.87793-4.53516.46973-.13379.95508-.22852 1.44824-.28516 2.40625-.27734 4.99902.36328 6.83691 1.87695l-15.87793 4.53418c-1.83789-1.51367-4.43164-2.15332-6.83789-1.87695-.49316.05665-.97851.15235-1.44726.28614z"/>
  </defs>
  <clipPath id="ai">
    <use xlink:href="#ah" overflow="visible"/>
  </clipPath>
  <g clip-path="url(#ai)">
    <path fill="#484848" d="m117.20215 140.27856-15.87793 4.53418c-1.83789-1.51367-4.43164-2.15332-6.83789-1.87695-.49316.05664-.97852.15234-1.44727.28613l15.87793-4.53516c.46973-.13379.95508-.22852 1.44824-.28516 2.40625-.27733 4.99903.36329 6.83692 1.87696"/>
  </g>
  <defs>
    <path id="aj" d="M83.86914 126.47388c-5.29297 1.51172-10.58545 3.02344-15.87891 4.53516 18.375-5.24805 30.47754-24.03516 27.73145-44.70459-3.03613-22.8545-23.07568-39.35694-44.75391-36.86426-2.07373.23828-4.08691.6416-6.03027 1.19678l15.87842-4.53467c1.94336-.55518 3.95654-.9585 6.03027-1.19678 21.67822-2.49268 41.71826 14.00977 44.75439 36.86426 2.74512 20.66894-9.35644 39.45703-27.73144 44.7041z"/>
  </defs>
  <clipPath id="ak">
    <use xlink:href="#aj" overflow="visible"/>
  </clipPath>
  <g clip-path="url(#ak)">
    <path fill="#4B4B4B" d="m83.86914 126.47388-15.87891 4.53516c.90723-.25977 1.79883-.55176 2.67432-.875l15.87842-4.53516c-.875.32422-1.76758.61621-2.67383.875"/>
    <path fill="#4A4A4A" d="m86.54297 125.59888-15.87842 4.53516c1.04932-.3877 2.07471-.82129 3.07568-1.29688l15.87793-4.53516c-1 .47656-2.02636.90918-3.07519 1.29688"/>
    <path fill="#4A4A4A" d="m89.61816 124.302-15.87793 4.53516c1.29883-.61914 2.55664-1.30957 3.7666-2.06836l15.87891-4.53418c-1.21094.75781-2.46777 1.44922-3.76758 2.06738"/>
    <path fill="#494949" d="m93.38574 122.23462-15.87891 4.53418c2.87207-1.79785 5.4834-3.97461 7.78125-6.45898l15.87793-4.53516c-2.29785 2.48437-4.9082 4.66113-7.78027 6.45996"/>
    <path fill="#484848" d="m101.16602 115.77466-15.87793 4.53516c1.31641-1.4248 2.53125-2.9502 3.63281-4.56348l15.87793-4.53418c-1.10156 1.61328-2.31543 3.13867-3.63281 4.5625"/>
    <path fill="#494949" d="m104.79883 111.21216-15.87793 4.53418c5.5625-8.14648 8.25-18.53223 6.80078-29.44189-1.4873-11.19775-7.05664-20.87061-14.90137-27.53174l15.87891-4.53418c7.84375 6.66064 13.41406 16.3335 14.90137 27.53125 1.44921 10.90918-1.23829 21.29492-6.80176 29.44238"/>
    <path fill="#484848" d="m96.69922 54.23853-15.87891 4.53418c-8.16504-6.93408-18.7959-10.604-29.85254-9.33252-2.07373.23828-4.08691.6416-6.03027 1.19678l15.87842-4.53467c1.94336-.55518 3.95654-.9585 6.03027-1.19678 11.05615-1.27149 21.68701 2.39844 29.85303 9.33301"/>
  </g>
  <defs>
    <path id="al" d="M38.32373 13.08276c5.29346-1.51123 10.58545-3.02344 15.87842-4.53467-3.07275.87793-5.11279 4.03809-4.6543 7.48975l-15.87842 4.53467c-.45849-3.45166 1.58155-6.6123 4.6543-7.48975z"/>
  </defs>
  <clipPath id="am">
    <use xlink:href="#al" overflow="visible"/>
  </clipPath>
  <g clip-path="url(#am)">
    <path fill="#494949" d="m49.54785 16.03784-15.87842 4.53467c-.2417-1.82031.21143-3.55957 1.14404-4.92578l15.87842-4.53418c-.93261 1.36621-1.38574 3.10498-1.14404 4.92529"/>
    <path fill="#484848" d="m50.69189 11.11255-15.87842 4.53418c.18506-.27051.38867-.52686.60986-.76611l15.87842-4.53467c-.2207.23926-.4248.4956-.60986.7666"/>
    <path fill="#494949" d="m51.30176 10.34595-15.87842 4.53467c.3877-.41943.82764-.78662 1.31201-1.08984L52.61377 9.2561c-.48438.30323-.92432.67041-1.31201 1.08985"/>
    <path fill="#4A4A4A" d="m52.61377 9.2561-15.87842 4.53467c.20215-.12695.4126-.24219.62988-.3457L53.24365 8.9104c-.21728.10352-.42724.21875-.62988.3457"/>
    <path fill="#4A4A4A" d="m53.24365 8.9104-15.87842 4.53467c.16699-.07959.33838-.15186.51318-.21631l15.87842-4.53467c-.1748.06445-.34619.13672-.51318.21631"/>
    <path fill="#4B4B4B" d="m53.75684 8.69409-15.87842 4.53418c.146-.05371.29443-.10254.44531-.14551L54.20215 8.5481c-.15088.04296-.29932.09179-.44531.14599"/>
  </g>
  <path fill="#4C4C4C" d="M49.90771 18.74634 34.0293 23.28101l-.35987-2.7085 15.87842-4.53467z"/>
  <defs>
    <path id="an" d="M89.65527 163.11938c-5.29297 1.51172-10.58496 3.02246-15.87793 4.53418-.32129.0918-.6543.15918-.99609.19824l15.87793-4.53418c.34277-.04003.6748-.10644.99609-.19824z"/>
  </defs>
  <clipPath id="ao">
    <use xlink:href="#an" overflow="visible"/>
  </clipPath>
  <g clip-path="url(#ao)">
    <path fill="#484848" d="m89.65527 163.11938-15.87793 4.53418c-.32129.0918-.6543.15918-.99609.19824l15.87793-4.53418c.34277-.04003.6748-.10644.99609-.19824"/>
  </g>
  <defs>
    <path id="ap" d="m44.83496 28.48462-15.87891 4.53467c3.2959-1.5459 5.58008-5.9248 5.07324-9.73828l15.87842-4.53467c.50684 3.81347-1.77734 8.19238-5.07275 9.73828z"/>
  </defs>
  <clipPath id="aq">
    <use xlink:href="#ap" overflow="visible"/>
  </clipPath>
  <g clip-path="url(#aq)">
    <path fill="#4A4A4A" d="m44.83496 28.48462-15.87891 4.53467c.01123-.00488.02197-.01025.03271-.01514l15.87842-4.53467c-.01073.00489-.02148.01026-.03222.01514"/>
    <path fill="#4A4A4A" d="m44.86719 28.46948-15.87842 4.53467c.24268-.11572.47949-.24609.71045-.39111l15.87793-4.53467c-.23047.14502-.46729.27539-.70996.39111"/>
    <path fill="#494949" d="m45.57715 28.07837-15.87793 4.53467c.63232-.39648 1.21777-.89795 1.7417-1.47705l15.87842-4.53418c-.52393.57861-1.10938 1.08007-1.74219 1.47656"/>
    <path fill="#484848" d="m47.31934 26.60181-15.87842 4.53418c.29883-.33008.57764-.68506.83398-1.06006l15.87842-4.53467c-.25635.375-.53516.73047-.83398 1.06055"/>
    <path fill="#494949" d="M48.15332 25.54126 32.2749 30.07593c1.34473-1.96924 2.06104-4.48584 1.75439-6.79492l15.87842-4.53467c.30665 2.30908-.40966 4.82568-1.75439 6.79492"/>
  </g>
  <path fill="#484848" d="m88.65918 163.31763-15.87793 4.53418-12.67773 1.458 15.8789-4.53515zM38.01172 32.41724 22.13379 36.9519l6.82226-3.93261 15.87891-4.53467z"/>
  <defs>
    <path id="ar" d="M35.66309 33.53101c-5.29297 1.51123-10.58545 3.02344-15.87842 4.53467.85205-.24316 1.65088-.61377 2.34912-1.11377l15.87793-4.53467c-.69776.5-1.49658.8706-2.34863 1.11377z"/>
  </defs>
  <clipPath id="as">
    <use xlink:href="#ar" overflow="visible"/>
  </clipPath>
  <g clip-path="url(#as)">
    <path fill="#4B4B4B" d="m35.66309 33.53101-15.87842 4.53467c.20313-.05811.40381-.12354.6001-.19629l15.87891-4.53418c-.19679.07226-.39747.13769-.60059.1958"/>
    <path fill="#4A4A4A" d="m36.26318 33.33521-15.87842 4.53418c.22217-.08154.43945-.17285.65088-.27344l15.87842-4.53467c-.21142.10059-.42871.19189-.65088.27393"/>
    <path fill="#4A4A4A" d="m36.91406 33.06128-15.87842 4.53467c.25049-.11865.49268-.25049.72559-.39551l15.87842-4.53467c-.23291.14502-.4751.27686-.72559.39551"/>
    <path fill="#494949" d="m37.63965 32.66577-15.87842 4.53467c.12695-.0791.25146-.16211.37256-.24854l15.87793-4.53467c-.12061.08692-.24512.16944-.37207.24854"/>
  </g>
  <path fill="#4C4C4C" d="m68.48584 158.59888-15.87842 4.53418-.22949-1.72852 15.87842-4.53418z"/>
  <defs>
    <path id="at" d="m75.98242 164.77466-15.87891 4.53516c-3.61719.41602-6.98926-2.36328-7.49609-6.17676l15.87842-4.53418c.50684 3.81347 3.87891 6.59179 7.49658 6.17578z"/>
  </defs>
  <clipPath id="au">
    <use xlink:href="#at" overflow="visible"/>
  </clipPath>
  <g clip-path="url(#au)">
    <path fill="#484848" d="m75.98242 164.77466-15.87891 4.53516c-1.84473.21191-3.62549-.40723-4.99512-1.57031l15.87793-4.53418c1.37013 1.16308 3.1504 1.78124 4.9961 1.56933"/>
    <path fill="#494949" d="M70.98633 163.20532 55.1084 167.7395c-1.31641-1.11719-2.25244-2.7373-2.50098-4.60645l15.87842-4.53418c.24854 1.86817 1.18457 3.48829 2.50049 4.60645"/>
  </g>
  <defs>
    <path id="av" d="m68.25635 156.87036-15.87842 4.53418c-.50537-3.80371-3.86816-7.54297-7.46191-8.30566l15.87891-4.53516c3.59325.76367 6.95605 4.50195 7.46142 8.30664z"/>
  </defs>
  <clipPath id="aw">
    <use xlink:href="#av" overflow="visible"/>
  </clipPath>
  <g clip-path="url(#aw)">
    <path fill="#494949" d="m68.25635 156.87036-15.87842 4.53418c-.31543-2.37402-1.74316-4.72168-3.64551-6.33789l15.87842-4.53418c1.90234 1.61524 3.33008 3.96387 3.64551 6.33789"/>
    <path fill="#484848" d="m64.61084 150.53247-15.87842 4.53418c-1.14648-.97363-2.46484-1.68066-3.81641-1.96777l15.87891-4.53516c1.35108.28711 2.66992.99512 3.81592 1.96875"/>
  </g>
  <path fill="#484848" d="m60.79492 148.56372-15.8789 4.53516-8.29737-2.51953 15.87842-4.53516z"/>
  <defs>
    <path id="ax" d="M3.46826 33.49927c5.29297-1.51172 10.58545-3.02295 15.87842-4.53467-1.30029.37158-2.49219 1.16553-3.36914 2.35889L.09863 35.85767c.87744-1.19288 2.06934-1.98682 3.36963-2.3584z"/>
  </defs>
  <clipPath id="ay">
    <use xlink:href="#ax" overflow="visible"/>
  </clipPath>
  <g clip-path="url(#ay)">
    <path fill="#484848" d="M15.97754 31.32349.09863 35.85767c.13281-.18066.27295-.35205.41943-.51416l15.87842-4.53467c-.14648.16211-.28613.33398-.41894.51465"/>
    <path fill="#494949" d="M16.39648 30.80884.51807 35.34351c.40771-.45166.86621-.83154 1.35889-1.13867l15.87891-4.53467c-.49317.30712-.95118.68701-1.35939 1.13867"/>
    <path fill="#4A4A4A" d="M17.75586 29.67017 1.87695 34.20483c.20166-.12549.40918-.23828.62109-.33936l15.87842-4.53418c-.2124.10059-.41943.21388-.6206.33888"/>
    <path fill="#4A4A4A" d="M18.37646 29.3313 2.49805 33.86548c.17041-.08105.34375-.15381.51953-.21875l15.87891-4.53467c-.17628.06494-.34961.13818-.52003.21924"/>
    <path fill="#4B4B4B" d="m18.89648 29.11206-15.8789 4.53467c.14893-.05469.29883-.104.45068-.14746l15.87842-4.53467c-.15186.04346-.30176.09277-.4502.14746"/>
  </g>
  <defs>
    <path id="az" d="M30.97852 150.36841c5.02832-1.43555 10.05615-2.87207 15.08447-4.30762.23779-.06836.55566-.15918.79395-.22656.50586-.14453 1.02393-.24805 1.54492-.30762 1.40527-.16211 2.83008-.00684 4.09521.51758l-15.87842 4.53516c-1.26514-.52539-2.68994-.68066-4.09521-.51855-.521.05956-1.03906.16308-1.54492.30761z"/>
  </defs>
  <clipPath id="aA">
    <use xlink:href="#az" overflow="visible"/>
  </clipPath>
  <g clip-path="url(#aA)">
    <path fill="#484848" d="m52.49707 146.04419-15.87842 4.53516c-1.26514-.52539-2.68994-.68066-4.09521-.51855-.521.05957-1.03906.16309-1.54492.30762l15.87842-4.53418c.50586-.14453 1.02393-.24805 1.54492-.30762 1.40527-.16212 2.83007-.00684 4.09521.51757"/>
  </g>
  <path fill="#494949" d="m8.26416 41.79907-15.87842 4.53467L.09863 35.85767l15.87891-4.53418z"/>
  <defs>
    <path id="aB" d="m14.50195 64.01392-15.87842 4.53467c1.25146-3.56348-.10791-8.43701-3.01807-10.83398l15.87842-4.53467c2.91016 2.39696 4.26954 7.2705 3.01807 10.83398z"/>
  </defs>
  <clipPath id="aC">
    <use xlink:href="#aB" overflow="visible"/>
  </clipPath>
  <g clip-path="url(#aC)">
    <path fill="#494949" d="m14.50195 64.01392-15.87842 4.53467c1.23926-3.52783-.08105-8.33984-2.93115-10.76123l15.87842-4.53467c2.8501 2.42138 4.17041 7.23388 2.93115 10.76123"/>
    <path fill="#484848" d="m11.5708 53.25269-15.87842 4.53467c-.02881-.02441-.05811-.04883-.08691-.07275l15.87842-4.53467c.02881.02392.0581.04833.08691.07275"/>
  </g>
  <path fill="#4A4A4A" d="M11.48389 53.17993-4.39453 57.7146l-1.91748-1.57959 15.87842-4.53467z"/>
  <defs>
    <path id="aD" d="m9.56641 51.60034-15.87842 4.53467c-2.90967-2.39795-3.49561-6.80811-1.30225-9.80127l15.87842-4.53467c-2.19336 2.99317-1.60742 7.40332 1.30225 9.80127z"/>
  </defs>
  <clipPath id="aE">
    <use xlink:href="#aD" overflow="visible"/>
  </clipPath>
  <g clip-path="url(#aE)">
    <path fill="#484848" d="m9.56641 51.60034-15.87842 4.53467c-.02686-.02246-.05371-.04492-.08008-.06738l15.87842-4.53418c.02637.02246.05322.04443.08008.06689"/>
    <path fill="#494949" d="m9.48633 51.53345-15.87842 4.53418c-2.78223-2.36279-3.37158-6.5918-1.35107-9.55127l15.87842-4.53467c-2.02051 2.95947-1.43116 7.18848 1.35107 9.55176"/>
    <path fill="#484848" d="m8.13525 41.98169-15.87842 4.53467c.04199-.06152.08496-.12256.12891-.18262l15.87842-4.53467c-.04395.06055-.08691.1211-.12891.18262"/>
  </g>
  <path fill="#4B4B4B" d="m12.44336 72.15649-15.87842 4.53467 2.0586-8.14258 15.87841-4.53466z"/>
  <defs>
    <path id="aF" d="m37.85449 152.65942-15.87891 4.53516c-.33252.09473-.67236.16211-1.01563.20215-1.68457.19336-3.45801-.28613-4.91309-1.48535l15.87842-4.53418c1.45508 1.19922 3.22852 1.67871 4.91309 1.48438.34327-.03907.68311-.10645 1.01612-.20216z"/>
  </defs>
  <clipPath id="aG">
    <use xlink:href="#aF" overflow="visible"/>
  </clipPath>
  <g clip-path="url(#aG)">
    <path fill="#484848" d="m37.85449 152.65942-15.87891 4.53516c-.33252.09473-.67236.16211-1.01563.20215-1.68457.19336-3.45801-.28613-4.91309-1.48535l15.87842-4.53418c1.45508 1.19922 3.22852 1.67871 4.91309 1.48438.34327-.03907.68311-.10645 1.01612-.20216"/>
  </g>
  <path fill="#4B4B4B" d="m21.68164 120.38696-15.87842 4.53418-4.17041-7.75195 15.87842-4.53418z"/>
  <defs>
    <path id="aH" d="m21.52686 131.62231-15.87842 4.53418c2.20313-2.98438 2.26953-8.04004.15479-11.23535l15.87842-4.53418c2.11474 3.19434 2.04833 8.25-.15479 11.23535z"/>
  </defs>
  <clipPath id="aI">
    <use xlink:href="#aH" overflow="visible"/>
  </clipPath>
  <g clip-path="url(#aI)">
    <path fill="#484848" d="m21.52686 131.62231-15.87842 4.53418c.05225-.07031.10352-.14258.15332-.21582l15.87842-4.53516c-.04981.07325-.10108.14552-.15332.2168"/>
    <path fill="#494949" d="m21.68018 131.40552-15.87842 4.53516c2.05176-3.00781 2.06592-7.90039.00146-11.01953l15.87842-4.53418c2.06445 3.11816 2.05029 8.01074-.00146 11.01855"/>
  </g>
  <defs>
    <path id="aJ" d="M5.84766 79.51245C.81934 80.94849-4.20898 82.38452-9.2373 83.82056c-.23779.06787-.55566.15869-.79395.22656 3.18457-.90918 6.02881-3.99561 6.59619-7.35596l15.87842-4.53467c-.56738 3.36084-3.41162 6.44678-6.5957 7.35596z"/>
  </defs>
  <clipPath id="aK">
    <use xlink:href="#aJ" overflow="visible"/>
  </clipPath>
  <g clip-path="url(#aK)">
    <path fill="#4B4B4B" d="m5.84766 79.51245-15.87891 4.53467c.18896-.05371.37646-.11523.5625-.18408l15.87842-4.53467c-.18604.06885-.37354.13037-.56201.18408"/>
    <path fill="#4A4A4A" d="m6.40967 79.32837-15.87842 4.53467c.2334-.08643.46484-.18457.69238-.29297L7.10205 79.0354c-.22754.1084-.45898.20654-.69238.29297m.69238-.29297-15.87842 4.53467c.30615-.146.60645-.31104.89844-.49365l15.87842-4.53467c-.29199.18262-.59229.34765-.89844.49365"/>
    <path fill="#494949" d="m8.00049 78.54175-15.87842 4.53467c.8833-.55176 1.69434-1.26172 2.37891-2.07813l15.87842-4.53467c-.68458.81641-1.49561 1.52637-2.37891 2.07813"/>
    <path fill="#484848" d="m10.37939 76.46362-15.87842 4.53467c.21582-.25732.41895-.5249.60791-.80176l15.87842-4.53467c-.18896.27686-.39209.54444-.60791.80176"/>
    <path fill="#494949" d="m10.9873 75.66187-15.87842 4.53467c.72949-1.06787 1.24707-2.26807 1.45605-3.50537l15.87842-4.53467c-.20897 1.2373-.72655 2.43749-1.45605 3.50537"/>
  </g>
  <path fill="#494949" d="m20.3999 133.15356-15.87842 4.53418 1.12696-1.53125 15.87842-4.53418z"/>
  <path fill="#4A4A4A" d="m31.92529 151.3772-15.87841 4.53418-10.22315-8.42188 15.87842-4.53418z"/>
  <defs>
    <path id="aL" d="M21.70215 142.95532 5.82373 147.4895c-2.90967-2.39746-3.49561-6.80762-1.30225-9.80176l15.87842-4.53418c-2.19336 2.99317-1.60742 7.4043 1.30225 9.80176z"/>
  </defs>
  <clipPath id="aM">
    <use xlink:href="#aL" overflow="visible"/>
  </clipPath>
  <g clip-path="url(#aM)">
    <path fill="#484848" d="M21.70215 142.95532 5.82373 147.4895c-.02734-.02246-.0542-.04492-.08057-.06738l15.87842-4.53418c.02686.02246.05322.04492.08057.06738"/>
    <path fill="#494949" d="m21.62158 142.88794-15.87842 4.53418c-2.78223-2.3623-3.37109-6.5918-1.35059-9.55176l15.87842-4.53418c-2.0205 2.95899-1.43163 7.18848 1.35059 9.55176"/>
    <path fill="#484848" d="m20.271 133.33618-15.87842 4.53418c.04199-.06152.08496-.12207.12891-.18262l15.87842-4.53418c-.04395.06055-.08692.1211-.12891.18262"/>
  </g>
  <defs>
    <path id="aN" d="m17.51123 112.63501-15.87842 4.53418c-1.54883-3.52148-5.78125-6.05664-9.39014-5.6416l15.87842-4.53418c3.60889-.41504 7.84131 2.11914 9.39014 5.6416z"/>
  </defs>
  <clipPath id="aO">
    <use xlink:href="#aN" overflow="visible"/>
  </clipPath>
  <g clip-path="url(#aO)">
    <path fill="#494949" d="m17.51123 112.63501-15.87842 4.53418c-.54834-1.24707-1.43359-2.37109-2.5083-3.2832l15.87842-4.53516c1.07471.91309 1.95996 2.03711 2.5083 3.28418"/>
    <path fill="#484848" d="m15.00293 109.35083-15.87842 4.53516c-1.96045-1.66406-4.55127-2.62695-6.88184-2.3584l15.87842-4.53418c2.33106-.26856 4.92188.69336 6.88184 2.35742"/>
  </g>
  <path fill="#484848" d="m8.12109 106.99341-15.87841 4.53418-1.99463.22949 15.87841-4.53516z"/>
  <radialGradient id="aP" cx="71.92676" cy="85.83325" r="77.08356" gradientUnits="userSpaceOnUse">
    <stop offset=".07143" stop-color="#939393"/>
    <stop offset=".19231" stop-color="#fff"/>
    <stop offset=".5" stop-color="#939393"/>
    <stop offset=".5989" stop-color="#bbb"/>
    <stop offset=".74725" stop-color="#b7b7b7"/>
    <stop offset=".80337" stop-color="#d6d6d6"/>
    <stop offset="1" stop-color="#939598"/>
  </radialGradient>
  <path fill="url(#aP)" d="M137.73535 64.44458c3.6084-.41504 6.98145 2.36328 7.48828 6.17676l1.77539 13.36523c.50684 3.81348-2.03809 7.27246-5.64648 7.68652l-2.00293.23047c-3.6084.41504-7.0498 3.83203-7.63184 7.59961l-2.01563 8.46289c-1.21484 3.57715.17188 8.46582 3.09082 10.8623l1.49316 1.23047c2.91113 2.40625 3.49707 6.81738 1.30176 9.80078l-7.71094 10.48535c-1.09863 1.49219-2.69238 2.3584-4.37695 2.55176-1.68555.19434-3.46094-.28516-4.9209-1.4834l-1.37695-1.13477c-1.83789-1.51367-4.43066-2.1543-6.83691-1.87695-1.40527.16113-2.74707.63574-3.83691 1.42969l-7.37988 4.32324c-3.29492 1.55469-5.57813 5.94238-5.07227 9.74707l.22949 1.72852c.50684 3.8125-2.03711 7.27246-5.64648 7.6875l-12.67676 1.45703c-3.61768.41602-6.98975-2.3623-7.49658-6.17578l-.22949-1.72852c-.50537-3.80469-3.86816-7.54297-7.46143-8.30664l-8.29785-2.51953c-1.26514-.52441-2.68994-.67969-4.09521-.51758-2.40674.27637-4.75488 1.48438-6.14014 3.36816l-1.03955 1.41309c-1.10205 1.49316-2.69873 2.36035-4.38379 2.55371-1.68457.19434-3.45801-.28516-4.91309-1.48438l-10.22314-8.42188c-2.90967-2.39746-3.49561-6.80859-1.30225-9.80176l1.12695-1.53125c2.20313-2.98535 2.26953-8.04102.15479-11.23535l-4.17041-7.75195c-1.54883-3.52246-5.78125-6.05664-9.39014-5.6416l-1.99463.22852c-3.61719.41602-6.98975-2.3623-7.49609-6.17578L-3.14502 87.6809c-.50684-3.81348 2.03711-7.27148 5.6543-7.6875l2.20605-.25391c3.61719-.41602 7.09424-3.82813 7.72803-7.58301l2.05859-8.14258c1.25146-3.56348-.10791-8.43701-3.01807-10.83398L9.5664 51.60033c-2.90967-2.39795-3.49561-6.80811-1.30225-9.80127l7.71338-10.47559c1.10059-1.49756 2.69678-2.36621 4.38184-2.56006 1.68555-.19385 3.45898.2876 4.91455 1.49072l2.03174 1.66602c1.85059 1.52979 4.47217 2.17773 6.90137 1.89844 1.3916-.16016 2.7207-.62451 3.80469-1.40137l6.82324-3.93262c3.29541-1.5459 5.57959-5.9248 5.07275-9.73828l-.35986-2.7085c-.50635-3.81396 2.03711-7.27246 5.6543-7.68799l12.67773-1.45801c3.60889-.41504 6.98145 2.36328 7.4873 6.17676l.36035 2.70898c.50684 3.81348 3.86816 7.54297 7.46875 8.2959l7.65527 2.26807c1.25195.5083 2.66016.65771 4.05078.49805 2.42871-.2793 4.80273-1.50146 6.20313-3.40527l1.52539-2.07471c1.10254-1.49756 2.69824-2.36621 4.38379-2.56006 1.68457-.19385 3.45801.2876 4.91406 1.49072l10.22168 8.41357c2.91113 2.40674 3.49707 6.81689 1.30176 9.80127l-1.44629 1.9668c-2.19531 2.98389-2.23828 8.01904-.0918 11.19141l4.12793 7.43164c1.59668 3.49805 5.8623 6.02002 9.47949 5.604l2.21388-.25437zm-59.89453 63.22559c21.67773-2.49219 36.7959-23.0459 33.75977-45.90039s-23.07618-39.35694-44.7544-36.86426C45.16748 47.3982 30.05762 67.94263 33.09326 90.79615c3.03613 22.85448 23.06885 39.36718 44.74756 36.87402"/>
  <defs>
    <path id="aQ" d="M-14.36914 84.72632c5.29297-1.51123 10.58545-3.02295 15.87842-4.53467-3.07324.87793-5.11279 4.03809-4.6543 7.48926l-15.87842 4.53516c-.45849-3.45118 1.58106-6.61182 4.6543-7.48975z"/>
  </defs>
  <clipPath id="aR">
    <use xlink:href="#aQ" overflow="visible"/>
  </clipPath>
  <g clip-path="url(#aR)">
    <path fill="#494949" d="m-3.14502 87.68091-15.87842 4.53516c-.2417-1.82031.21094-3.55957 1.14404-4.92529l15.87842-4.53467c-.9331 1.3662-1.38574 3.10497-1.14404 4.9248"/>
    <path fill="#484848" d="m-2.00098 82.7561-15.87842 4.53467c.18506-.271.38867-.52734.60986-.7666l15.87842-4.53467c-.22118.23926-.4248.49561-.60986.7666"/>
    <path fill="#494949" d="m-1.39111 81.9895-15.87842 4.53467c.38721-.41943.82764-.78662 1.31152-1.08984l15.87842-4.53467c-.48389.30322-.92432.67041-1.31152 1.08984"/>
    <path fill="#4A4A4A" d="m-.07959 80.89966-15.87842 4.53467c.20264-.12646.4126-.24219.62988-.3457L.55029 80.55396c-.21728.10351-.42724.21923-.62988.3457"/>
    <path fill="#4A4A4A" d="m.55029 80.55396-15.87842 4.53467c.16699-.07959.33838-.15186.51367-.21631l15.87842-4.53467c-.17529.06494-.34667.1372-.51367.21631"/>
    <path fill="#4B4B4B" d="m1.06396 80.33765-15.87842 4.53467c.14551-.0542.29443-.10254.44531-.146l15.87842-4.53467c-.15087.04346-.2998.0918-.44531.146"/>
  </g>
  <path fill="#4C4C4C" d="m-1.36963 101.04614-15.87842 4.53516-1.77539-13.36524 15.87842-4.53515z"/>
  <defs>
    <path id="aS" d="m6.12646 107.22192-15.87842 4.53516c-3.61719.41602-6.98975-2.36328-7.49609-6.17578l15.87842-4.53516c.50635 3.81348 3.87891 6.5918 7.49609 6.17578z"/>
  </defs>
  <clipPath id="aT">
    <use xlink:href="#aS" overflow="visible"/>
  </clipPath>
  <g clip-path="url(#aT)">
    <path fill="#484848" d="m6.12646 107.22192-15.87842 4.53516c-1.84473.21191-3.62598-.40723-4.99561-1.57031l15.87842-4.53418c1.36964 1.16308 3.15089 1.78222 4.99561 1.56933"/>
    <path fill="#494949" d="m1.13086 105.65259-15.87842 4.53418c-1.31592-1.11719-2.25244-2.7373-2.50049-4.60547l15.87842-4.53516c.24805 1.86914 1.18457 3.48926 2.50049 4.60645"/>
  </g>
</svg>