<svg xmlns="http://www.w3.org/2000/svg" viewBox="0 0 620 360">
  <defs>
    <linearGradient id="g" x1="180" y1="55" x2="490" y2="320" gradientUnits="userSpaceOnUse">
      <stop offset="0" stop-color="#fff"/><stop offset="0.34" stop-color="#ccd6ff"/><stop offset="0.7" stop-color="#6d76db"/><stop offset="1" stop-color="#20244b"/>
    </linearGradient>
    <filter id="s" x="-30%" y="-30%" width="160%" height="160%"><feDropShadow dx="12" dy="15" stdDeviation="9" flood-color="#050712" flood-opacity="0.62"/></filter>
  </defs>
  <g filter="url(#s)" fill="url(#g)" stroke="url(#g)" stroke-width="12" stroke-linecap="round">
    <line x1="310" y1="180" x2="310" y2="42"/><line x1="310" y1="180" x2="500" y2="92"/><line x1="310" y1="180" x2="486" y2="288"/>
    <line x1="310" y1="180" x2="310" y2="326"/><line x1="310" y1="180" x2="135" y2="288"/><line x1="310" y1="180" x2="120" y2="92"/>
    <line x1="310" y1="180" x2="540" y2="190"/><line x1="310" y1="180" x2="82" y2="190"/>
    <circle cx="310" cy="180" r="34"/><circle cx="310" cy="42" r="18"/><circle cx="500" cy="92" r="18"/><circle cx="486" cy="288" r="18"/>
    <circle cx="310" cy="326" r="18"/><circle cx="135" cy="288" r="18"/><circle cx="120" cy="92" r="18"/><circle cx="540" cy="190" r="18"/><circle cx="82" cy="190" r="18"/>
  </g>
</svg>
